<svg width="78" height="38" viewBox="0 0 78 38" fill="none" xmlns="http://www.w3.org/2000/svg">
<rect width="78" height="38" fill="white"/>
<rect width="78" height="38" fill="#E6E6E6"/>
<path d="M39 9C44.5139 9 49 13.4861 49 19C49 24.5139 44.5139 29 39 29C33.4861 29 29 24.5139 29 19C29 13.4861 33.4861 9 39 9ZM46.5 19C46.5 17.3827 45.9803 15.8874 45.1064 14.6612L34.6612 25.1064C35.8874 25.9803 37.3827 26.5 39 26.5C43.1357 26.5 46.5 23.1357 46.5 19ZM32.8936 23.3388L43.3389 12.8936C42.1126 12.0197 40.6173 11.5 39 11.5C34.8643 11.5 31.5 14.8643 31.5 19C31.5 20.6173 32.0198 22.1126 32.8936 23.3388Z" fill="#B0B0B0"/>
</svg>
