<svg width="78" height="38" viewBox="0 0 78 38" fill="none" xmlns="http://www.w3.org/2000/svg">
<rect width="78" height="38" fill="white"/>
<rect width="78" height="38" fill="#E6E6E6"/>
<rect x="15" y="16" width="22" height="1" rx="0.5" fill="#B0B0B0"/>
<rect x="15" y="18" width="21" height="1" rx="0.5" fill="#B0B0B0"/>
<rect x="15" y="20" width="17" height="1" rx="0.5" fill="#B0B0B0"/>
<rect x="15" y="22" width="13" height="1" rx="0.5" fill="#B0B0B0"/>
<rect x="41" y="16" width="22" height="1" rx="0.5" fill="#B0B0B0"/>
<rect x="41" y="18" width="17" height="1" rx="0.5" fill="#B0B0B0"/>
<rect x="41" y="20" width="17" height="1" rx="0.5" fill="#B0B0B0"/>
<rect x="41" y="22" width="11" height="1" rx="0.5" fill="#B0B0B0"/>
<rect x="15" y="5" width="22" height="9" rx="1" fill="#B0B0B0"/>
<rect x="15" y="25" width="22" height="9" rx="1" fill="#B0B0B0"/>
<rect x="41" y="25" width="22" height="9" rx="1" fill="#B0B0B0"/>
<rect x="41" y="5" width="22" height="9" rx="1" fill="#B0B0B0"/>
</svg>
